<?xml version="1.0" encoding="UTF-8"?>
<!DOCTYPE svg PUBLIC "-//W3C//DTD SVG 1.1//EN" "http://www.w3.org/Graphics/SVG/1.1/DTD/svg11.dtd">
<svg xmlns="http://www.w3.org/2000/svg" version="1.1" width="406px" height="248px" style="shape-rendering:geometricPrecision; text-rendering:geometricPrecision; image-rendering:optimizeQuality; fill-rule:evenodd; clip-rule:evenodd" xmlns:xlink="http://www.w3.org/1999/xlink">
<g><path style="opacity:0.995" fill="#b0d377" d="M 349.5,26.5 C 349.5,46.1667 349.5,65.8333 349.5,85.5C 348.167,85.5 346.833,85.5 345.5,85.5C 345.5,67.1667 345.5,48.8333 345.5,30.5C 285.167,30.5 224.833,30.5 164.5,30.5C 164.5,48.5 164.5,66.5 164.5,84.5C 163.167,84.5 161.833,84.5 160.5,84.5C 160.5,65.1667 160.5,45.8333 160.5,26.5C 223.5,26.5 286.5,26.5 349.5,26.5 Z"/></g>
<g><path style="opacity:0.029" fill="#f8fbf4" d="M 345.5,85.5 C 345.832,127.337 345.499,169.003 344.5,210.5C 344.5,150.833 344.5,91.1667 344.5,31.5C 284.833,31.5 225.167,31.5 165.5,31.5C 165.83,49.3412 165.497,67.0079 164.5,84.5C 164.5,66.5 164.5,48.5 164.5,30.5C 224.833,30.5 285.167,30.5 345.5,30.5C 345.5,48.8333 345.5,67.1667 345.5,85.5 Z"/></g>
<g><path style="opacity:0.354" fill="#d7e9bb" d="M 349.5,25.5 C 349.5,25.8333 349.5,26.1667 349.5,26.5C 286.5,26.5 223.5,26.5 160.5,26.5C 160.5,45.8333 160.5,65.1667 160.5,84.5C 161.833,84.5 163.167,84.5 164.5,84.5C 163.081,85.4511 161.415,85.7845 159.5,85.5C 159.5,65.5 159.5,45.5 159.5,25.5C 222.833,25.5 286.167,25.5 349.5,25.5 Z"/></g>
<g><path style="opacity:0.99" fill="#c1dc92" d="M 65.5,99.5 C 66.9063,99.0269 67.573,98.0269 67.5,96.5C 68.4521,92.1883 70.9521,90.8549 75,92.5C 74.9899,106.53 74.9899,120.53 75,134.5C 73.6439,135.38 72.1439,135.714 70.5,135.5C 70.8322,123.814 70.4989,112.148 69.5,100.5C 68.8933,100.624 68.56,100.957 68.5,101.5C 64.9502,109.599 60.6169,117.265 55.5,124.5C 50.072,117.313 45.4054,109.647 41.5,101.5C 41.44,100.957 41.1067,100.624 40.5,100.5C 39.6143,101.325 39.281,102.325 39.5,103.5C 38.6733,108.651 38.1733,113.984 38,119.5C 37.8276,113.319 37.3276,107.319 36.5,101.5C 36.5,98.5 36.5,95.5 36.5,92.5C 38.0348,91.2121 39.7015,91.2121 41.5,92.5C 45.8059,100.124 50.4726,107.457 55.5,114.5C 58.8925,109.459 62.2258,104.459 65.5,99.5 Z"/></g>
<g><path style="opacity:1" fill="#cee4a9" d="M 83.5,91.5 C 88.1585,91.0146 89.4919,92.848 87.5,97C 85.8659,97.4935 84.1992,97.6602 82.5,97.5C 82.3253,95.3792 82.6586,93.3792 83.5,91.5 Z"/></g>
<g><path style="opacity:0.997" fill="#b4d57d" d="M 152.5,134.5 C 152.439,132.408 151.439,130.908 149.5,130C 150.252,129.329 150.586,128.496 150.5,127.5C 150.5,122.167 150.5,116.833 150.5,111.5C 150.461,110.417 150.127,109.417 149.5,108.5C 150.243,107.818 150.909,107.151 151.5,106.5C 151.5,101.833 151.5,97.1667 151.5,92.5C 152.5,92.5 153.5,92.5 154.5,92.5C 155.149,106.873 154.482,120.873 152.5,134.5 Z"/></g>
<g><path style="opacity:0.92" fill="#d5e6b6" d="M 185.5,92.5 C 188.084,93.0483 189.084,94.715 188.5,97.5C 186.901,97.7678 185.568,97.4345 184.5,96.5C 186.842,95.7893 187.175,94.456 185.5,92.5 Z"/></g>
<g><path style="opacity:0.255" fill="#e7f1d4" d="M 67.5,96.5 C 67.573,98.0269 66.9063,99.0269 65.5,99.5C 65.427,97.9731 66.0937,96.9731 67.5,96.5 Z"/></g>
<g><path style="opacity:0.031" fill="#fbfcf8" d="M 68.5,101.5 C 68.56,100.957 68.8933,100.624 69.5,100.5C 70.4989,112.148 70.8322,123.814 70.5,135.5C 69.8333,124.167 69.1667,112.833 68.5,101.5 Z"/></g>
<g><path style="opacity:0.612" fill="#d5e8b7" d="M 152.5,134.5 C 154.482,120.873 155.149,106.873 154.5,92.5C 153.5,92.5 152.5,92.5 151.5,92.5C 151.5,97.1667 151.5,101.833 151.5,106.5C 150.209,106.737 149.209,106.404 148.5,105.5C 150.436,101.285 151.103,96.6186 150.5,91.5C 152.167,91.5 153.833,91.5 155.5,91.5C 155.5,106.167 155.5,120.833 155.5,135.5C 154.209,135.737 153.209,135.404 152.5,134.5 Z"/></g>
<g><path style="opacity:0.989" fill="#b8d783" d="M 120.5,109.5 C 120.5,117.833 120.5,126.167 120.5,134.5C 119.5,134.5 118.5,134.5 117.5,134.5C 117.825,126.981 117.492,119.648 116.5,112.5C 115.974,110.77 114.974,109.436 113.5,108.5C 110.695,107.681 107.695,107.181 104.5,107C 105.381,106.292 106.047,105.458 106.5,104.5C 109.408,103.431 112.408,103.264 115.5,104C 118.079,105.076 119.746,106.909 120.5,109.5 Z"/></g>
<g><path style="opacity:0.82" fill="#d9e9be" d="M 201.5,105.5 C 200.167,105.5 198.833,105.5 197.5,105.5C 197.5,106.5 197.5,107.5 197.5,108.5C 196.199,107.116 196.199,105.616 197.5,104C 199.14,103.652 200.473,104.152 201.5,105.5 Z"/></g>
<g><path style="opacity:0.988" fill="#c3dd96" d="M 280.5,104.5 C 281.11,105.391 281.443,106.391 281.5,107.5C 267.621,106.524 262.788,112.857 267,126.5C 268.025,128.687 269.525,130.354 271.5,131.5C 274.358,132.166 277.358,132.833 280.5,133.5C 279.757,134.182 279.091,134.849 278.5,135.5C 266.649,136.991 260.649,131.658 260.5,119.5C 260.969,106.264 267.636,101.264 280.5,104.5 Z"/></g>
<g><path style="opacity:0.063" fill="#f1f7e6" d="M 280.5,104.5 C 282.552,105.053 282.885,106.053 281.5,107.5C 281.443,106.391 281.11,105.391 280.5,104.5 Z"/></g>
<g><path style="opacity:1" fill="#c9e0a0" d="M 85.5,103.5 C 86.7498,103.577 87.5831,104.244 88,105.5C 88.8181,115.411 88.6515,125.244 87.5,135C 85.8876,135.72 84.3876,135.554 83,134.5C 82.5002,124.506 82.3335,114.506 82.5,104.5C 83.791,104.737 84.791,104.404 85.5,103.5 Z"/></g>
<g><path style="opacity:0.989" fill="#b8d784" d="M 251.5,110.5 C 251.5,118.5 251.5,126.5 251.5,134.5C 250.5,134.5 249.5,134.5 248.5,134.5C 248.825,127.313 248.491,120.313 247.5,113.5C 246.781,111.909 245.781,110.409 244.5,109C 241.833,108.333 239.167,108.333 236.5,109C 235.584,109.278 234.918,109.778 234.5,110.5C 232.533,118.097 231.866,126.097 232.5,134.5C 231.5,134.5 230.5,134.5 229.5,134.5C 229.5,124.5 229.5,114.5 229.5,104.5C 231.124,104.36 232.29,105.027 233,106.5C 238.764,102.644 244.431,102.644 250,106.5C 250.791,107.745 251.291,109.078 251.5,110.5 Z"/></g>
<g><path style="opacity:0.987" fill="#c3dd96" d="M 197.5,108.5 C 197.5,107.5 197.5,106.5 197.5,105.5C 198.833,105.5 200.167,105.5 201.5,105.5C 204.264,112.96 206.764,120.626 209,128.5C 211.85,120.953 214.517,113.286 217,105.5C 219.048,103.164 220.882,103.164 222.5,105.5C 218.355,118.77 213.521,131.77 208,144.5C 205.961,146.874 203.628,148.874 201,150.5C 200.13,149.892 199.63,149.059 199.5,148C 202.604,144.46 204.937,140.46 206.5,136C 203.397,126.858 200.397,117.691 197.5,108.5 Z"/></g>
<g><path style="opacity:0.984" fill="#c5de9a" d="M 148.5,105.5 C 149.209,106.404 150.209,106.737 151.5,106.5C 150.909,107.151 150.243,107.818 149.5,108.5C 150.127,109.417 150.461,110.417 150.5,111.5C 140.679,105.382 135.346,108.049 134.5,119.5C 134.538,123.835 135.871,127.668 138.5,131C 140.81,131.497 143.143,131.663 145.5,131.5C 147.796,131.804 148.129,132.804 146.5,134.5C 139.895,137.8 134.728,136.133 131,129.5C 129.053,123.181 129.053,116.848 131,110.5C 135.329,103.479 141.162,101.813 148.5,105.5 Z"/></g>
<g><path style="opacity:0.853" fill="#dbeabe" d="M 106.5,104.5 C 106.047,105.458 105.381,106.292 104.5,107C 107.695,107.181 110.695,107.681 113.5,108.5C 109.838,108.034 106.505,108.701 103.5,110.5C 103.5,118.833 103.5,127.167 103.5,135.5C 101.533,135.739 99.6995,135.406 98,134.5C 97.5002,124.506 97.3335,114.506 97.5,104.5C 99.4918,104.328 101.158,104.995 102.5,106.5C 103.622,105.37 104.956,104.703 106.5,104.5 Z"/></g>
<g><path style="opacity:0.997" fill="#b1d479" d="M 103.5,110.5 C 102.508,118.316 102.174,126.316 102.5,134.5C 101.5,134.5 100.5,134.5 99.5,134.5C 99.3335,124.828 99.5002,115.161 100,105.5C 100.71,106.973 101.876,107.64 103.5,107.5C 103.5,108.5 103.5,109.5 103.5,110.5 Z"/></g>
<g><path style="opacity:0.985" fill="#c1dc94" d="M 185.5,92.5 C 187.175,94.456 186.842,95.7893 184.5,96.5C 179.577,94.6534 175.077,95.3201 171,98.5C 170.153,101.588 170.653,104.421 172.5,107C 177.167,109 181.833,111 186.5,113C 194.327,119.909 194.327,126.909 186.5,134C 182.616,136.148 178.616,136.648 174.5,135.5C 172.095,134.232 169.428,133.565 166.5,133.5C 165.89,132.609 165.557,131.609 165.5,130.5C 165.735,129.903 166.235,129.57 167,129.5C 173.871,132.737 180.205,132.071 186,127.5C 186.667,125.167 186.667,122.833 186,120.5C 180.36,116.891 174.527,113.558 168.5,110.5C 165.576,106.685 164.742,102.351 166,97.5C 168.484,92.5911 172.484,90.5911 178,91.5C 180.587,91.5552 183.087,91.8885 185.5,92.5 Z"/></g>
<g><path style="opacity:0.441" fill="#e4f0d0" d="M 36.5,92.5 C 36.5,95.5 36.5,98.5 36.5,101.5C 36.5,112.5 36.5,123.5 36.5,134.5C 37.5,134.5 38.5,134.5 39.5,134.5C 39.5,124.167 39.5,113.833 39.5,103.5C 39.281,102.325 39.6143,101.325 40.5,100.5C 41.1067,100.624 41.44,100.957 41.5,101.5C 40.8333,112.674 40.1667,124.007 39.5,135.5C 38.5,136.833 37.5,136.833 36.5,135.5C 35.1741,121.006 35.1741,106.672 36.5,92.5 Z"/></g>
<g><path style="opacity:0.993" fill="#afd275" d="M 36.5,101.5 C 37.3276,107.319 37.8276,113.319 38,119.5C 38.1733,113.984 38.6733,108.651 39.5,103.5C 39.5,113.833 39.5,124.167 39.5,134.5C 38.5,134.5 37.5,134.5 36.5,134.5C 36.5,123.5 36.5,112.5 36.5,101.5 Z"/></g>
<g><path style="opacity:0.732" fill="#d3e6b3" d="M 120.5,109.5 C 121.821,118.009 121.821,126.675 120.5,135.5C 119.5,136.833 118.5,136.833 117.5,135.5C 116.503,127.862 116.169,120.196 116.5,112.5C 117.492,119.648 117.825,126.981 117.5,134.5C 118.5,134.5 119.5,134.5 120.5,134.5C 120.5,126.167 120.5,117.833 120.5,109.5 Z"/></g>
<g><path style="opacity:0.535" fill="#daeabf" d="M 251.5,110.5 C 252.493,118.65 252.826,126.983 252.5,135.5C 250.833,135.5 249.167,135.5 247.5,135.5C 247.5,128.167 247.5,120.833 247.5,113.5C 248.491,120.313 248.825,127.313 248.5,134.5C 249.5,134.5 250.5,134.5 251.5,134.5C 251.5,126.5 251.5,118.5 251.5,110.5 Z"/></g>
<g><path style="opacity:0.768" fill="#d4e7b5" d="M 229.5,104.5 C 229.5,114.5 229.5,124.5 229.5,134.5C 230.5,134.5 231.5,134.5 232.5,134.5C 231.866,126.097 232.533,118.097 234.5,110.5C 233.531,118.748 233.198,127.082 233.5,135.5C 231.833,135.5 230.167,135.5 228.5,135.5C 228.172,124.986 228.506,114.653 229.5,104.5 Z"/></g>
<g><path style="opacity:0.942" fill="#cce2a6" d="M 150.5,127.5 C 150.586,128.496 150.252,129.329 149.5,130C 151.439,130.908 152.439,132.408 152.5,134.5C 151.849,133.909 151.182,133.243 150.5,132.5C 149.378,133.63 148.044,134.297 146.5,134.5C 148.129,132.804 147.796,131.804 145.5,131.5C 147.142,130.197 148.809,128.864 150.5,127.5 Z"/></g>
<g><path style="opacity:0.314" fill="#eef5e1" d="M 165.5,130.5 C 165.557,131.609 165.89,132.609 166.5,133.5C 164.448,132.947 164.115,131.947 165.5,130.5 Z"/></g>
<g><path style="opacity:0.859" fill="#d5e7b5" d="M 278.5,135.5 C 279.091,134.849 279.757,134.182 280.5,133.5C 277.358,132.833 274.358,132.166 271.5,131.5C 274.92,131.483 278.254,131.317 281.5,131C 283.161,134.15 282.161,135.65 278.5,135.5 Z"/></g>
<g><path style="opacity:0.765" fill="#dbebc1" d="M 166.5,133.5 C 169.428,133.565 172.095,134.232 174.5,135.5C 171.505,135.706 168.838,135.04 166.5,133.5 Z"/></g>
<g><path style="opacity:0.971" fill="#b0d377" d="M 345.5,85.5 C 346.833,85.5 348.167,85.5 349.5,85.5C 349.5,128.833 349.5,172.167 349.5,215.5C 286.5,215.5 223.5,215.5 160.5,215.5C 160.5,195.833 160.5,176.167 160.5,156.5C 161.833,155.167 163.167,155.167 164.5,156.5C 164.5,174.833 164.5,193.167 164.5,211.5C 224.669,211.832 284.669,211.499 344.5,210.5C 345.499,169.003 345.832,127.337 345.5,85.5 Z"/></g>
<g><path style="opacity:0.069" fill="#f2f8e9" d="M 349.5,25.5 C 350.499,88.9978 350.832,152.664 350.5,216.5C 286.833,216.5 223.167,216.5 159.5,216.5C 159.17,196.326 159.503,176.326 160.5,156.5C 160.5,176.167 160.5,195.833 160.5,215.5C 223.5,215.5 286.5,215.5 349.5,215.5C 349.5,172.167 349.5,128.833 349.5,85.5C 349.5,65.8333 349.5,46.1667 349.5,26.5C 349.5,26.1667 349.5,25.8333 349.5,25.5 Z"/></g>
<g><path style="opacity:0.335" fill="#e6f1d4" d="M 164.5,156.5 C 165.497,174.326 165.83,192.326 165.5,210.5C 225.167,210.5 284.833,210.5 344.5,210.5C 284.669,211.499 224.669,211.832 164.5,211.5C 164.5,193.167 164.5,174.833 164.5,156.5 Z"/></g>
</svg>
