<?xml version="1.0" standalone="no"?>
<!DOCTYPE svg PUBLIC "-//W3C//DTD SVG 20010904//EN"
 "http://www.w3.org/TR/2001/REC-SVG-20010904/DTD/svg10.dtd">
<svg version="1.0" xmlns="http://www.w3.org/2000/svg"
 width="1024.000000pt" height="1024.000000pt" viewBox="0 0 1024.000000 1024.000000"
 preserveAspectRatio="xMidYMid meet">

<g transform="translate(0.000000,1024.000000) scale(0.100000,-0.100000)"
fill="#000000" stroke="none">
<path d="M4820 8140 c-102 -21 -192 -40 -200 -42 -7 -2 98 -1 235 0 268 4 428
-7 563 -38 139 -33 164 -53 172 -139 l5 -56 60 -20 c76 -25 85 -31 85 -57 0
-18 4 -20 33 -14 77 17 165 26 197 22 250 -36 435 -72 456 -88 23 -19 24 -22
20 -136 -2 -64 -5 -120 -5 -124 -2 -19 -93 -51 -267 -95 -189 -48 -189 -48
-354 -47 -171 1 -185 3 -520 79 -113 25 -253 66 -296 85 -48 21 -124 86 -124
106 0 8 14 17 30 21 27 5 29 7 17 22 -8 9 -18 26 -21 39 -4 12 -14 22 -22 22
-17 0 -56 -19 -64 -31 -3 -4 -37 -10 -75 -14 -89 -9 -102 -15 -159 -64 -25
-22 -63 -45 -84 -50 -138 -37 -293 -64 -437 -76 -84 -8 -283 72 -310 124 -12
24 -13 36 -5 52 9 15 8 24 -2 36 -7 9 -16 56 -19 107 -7 96 3 137 37 150 9 4
15 9 12 11 -6 7 -1291 -251 -1347 -270 -24 -8 -59 -26 -77 -40 -41 -31 -134
-169 -134 -198 1 -12 11 -47 25 -77 15 -35 20 -59 14 -66 -5 -6 -44 -17 -86
-24 -90 -16 -129 -44 -163 -118 -12 -26 -38 -80 -59 -121 -36 -74 -36 -75 -33
-190 1 -64 25 -494 52 -956 28 -462 70 -1182 95 -1600 51 -877 53 -900 70
-942 20 -47 100 -104 212 -148 99 -39 101 -40 128 -93 35 -66 90 -114 180
-156 68 -32 2147 -914 2410 -1022 155 -64 184 -71 238 -54 38 11 1537 764
2177 1093 266 137 306 165 351 248 22 40 35 49 142 102 135 67 200 121 215
182 6 22 18 222 27 445 104 2717 116 3047 106 3095 -10 52 -44 117 -85 163
-18 20 -42 53 -54 72 -37 63 -63 79 -147 95 -43 9 -81 18 -84 21 -3 2 3 26 13
52 39 100 36 112 -38 205 -68 86 -101 111 -168 125 -51 12 -462 78 -2005 322
-380 61 -704 110 -720 109 -15 -1 -111 -18 -213 -39z m3045 -536 c-5 -2 -154
-42 -330 -88 -176 -46 -502 -131 -725 -190 -860 -226 -948 -248 -963 -243 -11
3 329 101 653 187 85 23 193 52 240 65 181 51 935 244 1045 268 26 6 93 7 80
1z m285 -333 c0 -5 -20 -16 -45 -24 -51 -18 -59 -10 -17 15 30 18 62 23 62 9z
m85 -181 c34 -13 53 -54 35 -75 -21 -25 -57 -41 -241 -105 -186 -65 -340 -140
-359 -174 -10 -20 -3 -41 58 -164 53 -108 83 -156 129 -207 149 -161 211 -427
169 -715 -32 -217 -116 -418 -306 -739 -165 -278 -208 -382 -229 -550 -6 -49
-16 -80 -28 -91 -24 -24 -467 -212 -497 -212 -13 0 -60 12 -104 26 l-80 27 -4
62 c-5 90 9 271 26 354 42 197 102 319 377 773 52 85 102 179 112 209 25 79
19 209 -10 218 -20 7 -100 -81 -132 -146 -34 -67 -65 -171 -81 -276 -17 -109
-18 -112 -47 -123 -29 -12 -410 -80 -496 -89 -33 -4 -73 1 -128 17 -113 32
-116 39 -100 186 27 245 134 561 256 755 27 42 24 71 -10 89 -12 7 -29 23 -36
36 -7 13 -18 24 -26 24 -17 0 -21 31 -9 75 19 75 18 83 -2 94 -34 18 -161 12
-267 -13 -55 -13 -153 -36 -218 -52 -134 -32 -170 -28 -175 18 -3 23 2 30 35
43 73 32 230 84 588 195 198 62 376 118 395 125 19 7 103 34 185 60 171 53
237 74 455 144 85 28 197 62 248 76 52 14 173 52 270 85 172 57 193 61 247 40z
m-2420 -20 c-11 -5 -27 -9 -35 -9 -9 0 -8 4 5 9 11 5 27 9 35 9 9 0 8 -4 -5
-9z m-2492 -604 c107 -32 202 -79 282 -139 76 -57 165 -153 165 -178 0 -22
-10 -24 -29 -6 -7 6 21 -31 62 -83 219 -274 331 -595 314 -895 -13 -226 -110
-403 -306 -559 -196 -156 -258 -252 -271 -412 -4 -52 -11 -98 -16 -103 -15
-13 -105 -44 -128 -43 -41 0 -520 181 -538 203 -15 18 -18 42 -18 158 0 162
16 247 65 350 47 98 80 139 245 301 146 143 165 169 180 252 19 101 -33 256
-107 317 -49 40 -121 65 -140 49 -39 -32 -83 -181 -83 -278 0 -46 -9 -54 -85
-75 l-60 -17 -250 121 c-138 66 -263 132 -279 146 l-29 25 7 101 c21 333 154
587 354 675 29 13 101 36 160 51 59 14 112 33 117 41 31 40 248 39 388 -2z
m1446 -124 c-13 -34 -57 -92 -69 -92 -19 0 -22 48 -4 74 17 28 64 57 76 50 4
-3 3 -17 -3 -32z m2576 -2263 c122 -22 145 -41 159 -129 9 -57 -12 -531 -25
-573 -23 -68 -71 -104 -265 -198 -214 -103 -250 -115 -302 -98 -70 22 -111 51
-132 94 -18 37 -20 60 -19 246 1 126 -3 227 -11 263 -21 104 5 180 79 225 67
41 396 180 427 181 17 0 57 -5 89 -11z m-4079 -103 c321 -116 312 -102 326
-490 12 -323 10 -334 -66 -381 -83 -51 -123 -45 -366 53 -223 89 -268 117
-295 184 -19 49 -35 239 -38 473 -2 178 4 194 80 218 106 34 101 35 359 -57z"/>
</g>
</svg>
